<svg xmlns="http://www.w3.org/2000/svg" width="1200" height="340" viewBox="0 0 1200 340" role="img" aria-labelledby="t d">
  <title id="t">ruixin-coffee-shop · 瑞鑫咖啡店管理系统</title>
  <desc id="d">Vue3 + Vite + Pinia + Vant 移动端咖啡点单系统。左侧标题与技术栈,右侧展示手机点单界面与自定义 TabBar。</desc>
  <rect width="1200" height="340" rx="22" fill="#1a120c"/>
  <rect x="0" y="0" width="6" height="340" rx="3" fill="#d97706"/>

  <g transform="translate(56,54)" font-family="-apple-system,BlinkMacSystemFont,'Segoe UI','PingFang SC',sans-serif">
    <text x="0" y="0" font-size="15" letter-spacing="4" fill="#d97706" font-weight="600">MOBILE · COFFEE ORDERING</text>
    <text x="0" y="52" font-size="40" font-weight="700" fill="#f5ecdf">瑞鑫咖啡店管理系统</text>
    <text x="0" y="96" font-size="17" fill="#a89481">Vue3 + Vite + Pinia + Vant 移动端</text>
    <text x="0" y="122" font-size="17" fill="#a89481">点单 · 购物车 · 待办 · 个人中心</text>

    <g transform="translate(0,160)" font-size="13.5" font-family="ui-monospace,SFMono-Regular,Menlo,monospace">
      <g><rect width="64" height="30" rx="8" fill="none" stroke="#3a2a1c"/><text x="32" y="20" text-anchor="middle" fill="#cdb9a3">Vue 3.5</text></g>
      <g transform="translate(76,0)"><rect width="64" height="30" rx="8" fill="none" stroke="#3a2a1c"/><text x="32" y="20" text-anchor="middle" fill="#cdb9a3">Vite 6</text></g>
      <g transform="translate(152,0)"><rect width="64" height="30" rx="8" fill="none" stroke="#3a2a1c"/><text x="32" y="20" text-anchor="middle" fill="#cdb9a3">Pinia</text></g>
      <g transform="translate(228,0)"><rect width="96" height="30" rx="8" fill="none" stroke="#3a2a1c"/><text x="48" y="20" text-anchor="middle" fill="#cdb9a3">Vue Router 4</text></g>
      <g transform="translate(336,0)"><rect width="68" height="30" rx="8" fill="none" stroke="#6b4a1a"/><text x="34" y="20" text-anchor="middle" fill="#d97706">Vant 4</text></g>
      <g transform="translate(416,0)"><rect width="64" height="30" rx="8" fill="none" stroke="#3a2a1c"/><text x="32" y="20" text-anchor="middle" fill="#cdb9a3">Sass</text></g>
    </g>
    <text x="0" y="236" font-size="13" font-family="ui-monospace,SFMono-Regular,Menlo,monospace" fill="#6b5a4a">自定义 TabBar · Axios · 响应式移动端</text>
  </g>

  <g transform="translate(740,40)" font-family="-apple-system,BlinkMacSystemFont,'Segoe UI','PingFang SC',sans-serif">
    <text x="0" y="0" font-size="12" letter-spacing="3" fill="#6b5a4a">MOBILE PREVIEW</text>
    <g transform="translate(8,16)">
      <rect width="196" height="276" rx="24" fill="#0f0a06" stroke="#3a2a1c" stroke-width="2"/>
      <rect x="12" y="14" width="172" height="248" rx="10" fill="#241a12"/>
      <circle cx="98" cy="20" r="3" fill="#3a2a1c"/>
      <text x="98" y="52" text-anchor="middle" font-size="13" fill="#f5ecdf" font-weight="700">瑞鑫咖啡</text>
      <text x="98" y="68" text-anchor="middle" font-size="10" fill="#8a7a6a">今日推荐</text>

      <g transform="translate(20,82)">
        <rect width="76" height="62" rx="8" fill="#1a120c" stroke="#3a2a1c"/>
        <circle cx="22" cy="22" r="12" fill="#3a2a1c"/>
        <path d="M16,22 a6,6 0 0 1 12,0 z" fill="#d97706"/>
        <text x="40" y="20" font-size="9" fill="#f5ecdf">拿铁</text>
        <text x="40" y="32" font-size="8" fill="#d97706" font-family="ui-monospace,monospace">￥18</text>
      </g>
      <g transform="translate(104,82)">
        <rect width="64" height="62" rx="8" fill="#1a120c" stroke="#3a2a1c"/>
        <circle cx="18" cy="22" r="12" fill="#3a2a1c"/>
        <path d="M12,22 a6,6 0 0 1 12,0 z" fill="#a16207"/>
        <text x="40" y="20" font-size="9" fill="#f5ecdf">美式</text>
        <text x="40" y="32" font-size="8" fill="#d97706" font-family="ui-monospace,monospace">￥15</text>
      </g>
      <g transform="translate(20,152)">
        <rect width="76" height="62" rx="8" fill="#1a120c" stroke="#3a2a1c"/>
        <circle cx="22" cy="22" r="12" fill="#3a2a1c"/>
        <path d="M16,22 a6,6 0 0 1 12,0 z" fill="#d97706"/>
        <text x="40" y="20" font-size="9" fill="#f5ecdf">卡布</text>
        <text x="40" y="32" font-size="8" fill="#d97706" font-family="ui-monospace,monospace">￥20</text>
      </g>
      <g transform="translate(104,152)">
        <rect width="64" height="62" rx="8" fill="#2a1c0e" stroke="#6b4a1a"/>
        <circle cx="18" cy="22" r="12" fill="#3a2a1c"/>
        <path d="M12,22 a6,6 0 0 1 12,0 z" fill="#d97706"/>
        <text x="40" y="20" font-size="9" fill="#f5ecdf">摩卡</text>
        <text x="40" y="32" font-size="8" fill="#d97706" font-family="ui-monospace,monospace">￥22</text>
        <rect x="46" y="2" width="16" height="14" rx="4" fill="#d97706"/>
        <text x="54" y="12" text-anchor="middle" font-size="8" fill="#1a120c" font-weight="700">HOT</text>
      </g>

      <g transform="translate(12,222)">
        <rect width="172" height="28" rx="6" fill="#0f0a06"/>
        <g transform="translate(6,4)">
          <text x="20" y="12" text-anchor="middle" font-size="8" fill="#d97706">首页</text>
          <text x="62" y="12" text-anchor="middle" font-size="8" fill="#6b5a4a">菜单</text>
          <text x="104" y="12" text-anchor="middle" font-size="8" fill="#6b5a4a">购物袋</text>
          <text x="146" y="12" text-anchor="middle" font-size="8" fill="#6b5a4a">我的</text>
        </g>
      </g>
    </g>

    <g transform="translate(228,16)" font-family="-apple-system,BlinkMacSystemFont,'Segoe UI','PingFang SC',sans-serif">
      <text x="0" y="16" font-size="12" fill="#a89481" font-weight="600">点单流程</text>
      <g transform="translate(0,32)">
        <rect width="184" height="34" rx="7" fill="#241a12" stroke="#3a2a1c"/>
        <text x="14" y="22" font-size="11.5" fill="#f5ecdf">菜单浏览 · 选规格</text>
        <text x="170" y="22" font-size="9" fill="#6b5a4a" text-anchor="end" font-family="ui-monospace,monospace">杯型/温度/甜度</text>
      </g>
      <g transform="translate(0,74)">
        <rect width="184" height="34" rx="7" fill="#241a12" stroke="#3a2a1c"/>
        <text x="14" y="22" font-size="11.5" fill="#f5ecdf">加入购物车</text>
        <text x="170" y="22" font-size="9" fill="#6b5a4a" text-anchor="end" font-family="ui-monospace,monospace">数量调整</text>
      </g>
      <g transform="translate(0,116)">
        <rect width="184" height="34" rx="7" fill="#2a1c0e" stroke="#6b4a1a"/>
        <text x="14" y="22" font-size="11.5" fill="#d97706" font-weight="600">提交订单</text>
        <text x="170" y="22" font-size="9" fill="#a16207" text-anchor="end" font-family="ui-monospace,monospace">金额计算</text>
      </g>
      <g transform="translate(0,158)">
        <rect width="184" height="34" rx="7" fill="#241a12" stroke="#3a2a1c"/>
        <text x="14" y="22" font-size="11.5" fill="#f5ecdf">个人中心</text>
        <text x="170" y="22" font-size="9" fill="#6b5a4a" text-anchor="end" font-family="ui-monospace,monospace">历史订单</text>
      </g>
    </g>
  </g>

  <text x="56" y="312" font-size="12" font-family="ui-monospace,SFMono-Regular,Menlo,monospace" fill="#6b5a4a">author: liem · MyTabBar.vue · npm run dev → :5173</text>
</svg>
